<svg xmlns="http://www.w3.org/2000/svg" viewBox="0 0 700 560" preserveAspectRatio="xMidYMid slice" width="700" height="560">
<defs>
  <linearGradient id="b" x1="0" y1="0" x2="1" y2="1"><stop offset="0" stop-color="#434954"/><stop offset="1" stop-color="#333840"/></linearGradient>
  <radialGradient id="v" cx="0.62" cy="0.4" r="0.75"><stop offset="0" stop-color="#fff" stop-opacity="0.06"/><stop offset="1" stop-color="#fff" stop-opacity="0"/></radialGradient>
  <filter id="gg"><feTurbulence type="fractalNoise" baseFrequency="0.9" numOctaves="2" stitchTiles="stitch"/><feColorMatrix type="matrix" values="0 0 0 0 0  0 0 0 0 0  0 0 0 0 0  0 0 0 0.05 0"/></filter>
</defs>
<rect width="700" height="560" fill="url(#b)"/>
<rect width="700" height="560" fill="url(#v)"/>
<g transform="translate(350,235)" fill="none" stroke="#ffffff" stroke-opacity="0.13" stroke-width="6" stroke-linecap="round" stroke-linejoin="round"><g transform="translate(-100,-90)"><g transform="translate(0,0)"><rect x="20" y="70" width="44" height="120" rx="6"/><path d="M20 95 Q42 45 64 95"/><line x1="20" y1="165" x2="64" y2="165"/></g><g transform="translate(70,0)"><rect x="20" y="70" width="44" height="120" rx="6"/><path d="M20 95 Q42 45 64 95"/><line x1="20" y1="165" x2="64" y2="165"/></g><g transform="translate(140,0)"><rect x="20" y="70" width="44" height="120" rx="6"/><path d="M20 95 Q42 45 64 95"/><line x1="20" y1="165" x2="64" y2="165"/></g></g></g>
<rect width="700" height="560" filter="url(#gg)"/>
</svg>