<svg xmlns="http://www.w3.org/2000/svg" viewBox="0 0 700 560" preserveAspectRatio="xMidYMid slice" width="700" height="560">
<defs>
  <linearGradient id="b" x1="0" y1="0" x2="1" y2="1"><stop offset="0" stop-color="#3a3e44"/><stop offset="1" stop-color="#2c2f33"/></linearGradient>
  <radialGradient id="v" cx="0.62" cy="0.4" r="0.75"><stop offset="0" stop-color="#fff" stop-opacity="0.06"/><stop offset="1" stop-color="#fff" stop-opacity="0"/></radialGradient>
  <filter id="gg"><feTurbulence type="fractalNoise" baseFrequency="0.9" numOctaves="2" stitchTiles="stitch"/><feColorMatrix type="matrix" values="0 0 0 0 0  0 0 0 0 0  0 0 0 0 0  0 0 0 0.05 0"/></filter>
</defs>
<rect width="700" height="560" fill="url(#b)"/>
<rect width="700" height="560" fill="url(#v)"/>
<g transform="translate(350,235)" fill="none" stroke="#ffffff" stroke-opacity="0.13" stroke-width="6" stroke-linecap="round" stroke-linejoin="round"><g transform="translate(-95,-80)"><circle cx="100" cy="80" r="44"/><circle cx="100" cy="80" r="14"/><g><line x1="100" y1="80" x2="100" y2="22" transform="rotate(0 100 80)"/><line x1="100" y1="80" x2="100" y2="22" transform="rotate(45 100 80)"/><line x1="100" y1="80" x2="100" y2="22" transform="rotate(90 100 80)"/><line x1="100" y1="80" x2="100" y2="22" transform="rotate(135 100 80)"/><line x1="100" y1="80" x2="100" y2="22" transform="rotate(180 100 80)"/><line x1="100" y1="80" x2="100" y2="22" transform="rotate(225 100 80)"/><line x1="100" y1="80" x2="100" y2="22" transform="rotate(270 100 80)"/><line x1="100" y1="80" x2="100" y2="22" transform="rotate(315 100 80)"/></g><path d="M150 150 l60 60 m-20 -10 a28 28 0 1 0 -30 -30"/></g></g>
<rect width="700" height="560" filter="url(#gg)"/>
</svg>