<svg xmlns="http://www.w3.org/2000/svg" viewBox="0 0 1000 1000" width="1000" height="1000">
<rect width="1000" height="1000" fill="#ffffff"/>
<ellipse cx="500" cy="880" rx="300" ry="34" fill="#000000" opacity="0.05"/>
<g fill="none" stroke="#cdcac4" stroke-width="9" stroke-linecap="round" stroke-linejoin="round"><g transform="translate(500,500)">
<rect x="-90" y="-280" width="180" height="430" rx="14"/>
<g stroke-width="6"><line x1="-90" y1="-250" x2="90" y2="-250"/><line x1="-90" y1="-208" x2="90" y2="-208"/><line x1="-90" y1="-166" x2="90" y2="-166"/><line x1="-90" y1="-124" x2="90" y2="-124"/><line x1="-90" y1="-82" x2="90" y2="-82"/><line x1="-90" y1="-40" x2="90" y2="-40"/><line x1="-90" y1="2" x2="90" y2="2"/><line x1="-90" y1="44" x2="90" y2="44"/><line x1="-90" y1="86" x2="90" y2="86"/><line x1="-90" y1="128" x2="90" y2="128"/></g>
<rect x="-30" y="150" width="60" height="120" rx="10"/>
<line x1="0" y1="270" x2="0" y2="360"/>
<circle cx="0" cy="-280" r="26"/>
</g></g>
</svg>