<svg xmlns="http://www.w3.org/2000/svg" viewBox="0 0 1760 900" preserveAspectRatio="xMidYMid slice" width="1760" height="900">
<defs>
  <linearGradient id="bg" x1="0" y1="0" x2="1" y2="1">
    <stop offset="0" stop-color="#1a1c20"/><stop offset="1" stop-color="#0a0b0d"/>
  </linearGradient>
  <radialGradient id="glow" cx="0.74" cy="0.42" r="0.6">
    <stop offset="0" stop-color="#5a6470" stop-opacity="0.30"/>
    <stop offset="0.55" stop-color="#5a6470" stop-opacity="0.05"/>
    <stop offset="1" stop-color="#5a6470" stop-opacity="0"/>
  </radialGradient>
  <linearGradient id="vig" x1="0" y1="0" x2="0" y2="1">
    <stop offset="0" stop-color="#000" stop-opacity="0.35"/>
    <stop offset="0.5" stop-color="#000" stop-opacity="0"/>
    <stop offset="1" stop-color="#000" stop-opacity="0.5"/>
  </linearGradient>
  <filter id="g"><feTurbulence type="fractalNoise" baseFrequency="0.9" numOctaves="2" stitchTiles="stitch"/><feColorMatrix type="matrix" values="0 0 0 0 0  0 0 0 0 0  0 0 0 0 0  0 0 0 0.06 0"/></filter>
</defs>
<rect width="1760" height="900" fill="url(#bg)"/>
<rect width="1760" height="900" fill="url(#glow)"/>
<g opacity="0.5"><g transform="translate(1180,250)" fill="none" stroke="#ffffff" stroke-opacity="0.10" stroke-width="3">
  <g transform="translate(0,0) rotate(8)"><rect x="0" y="0" width="60" height="300" rx="8"/><path d="M0 70 Q30 -34 60 70" /><line x1="0" y1="250" x2="60" y2="250"/><circle cx="30" cy="276" r="9"/></g><g transform="translate(86,26) rotate(8)"><rect x="0" y="0" width="60" height="300" rx="8"/><path d="M0 70 Q30 -34 60 70" /><line x1="0" y1="250" x2="60" y2="250"/><circle cx="30" cy="276" r="9"/></g><g transform="translate(172,52) rotate(8)"><rect x="0" y="0" width="60" height="300" rx="8"/><path d="M0 70 Q30 -34 60 70" /><line x1="0" y1="250" x2="60" y2="250"/><circle cx="30" cy="276" r="9"/></g><g transform="translate(258,78) rotate(8)"><rect x="0" y="0" width="60" height="300" rx="8"/><path d="M0 70 Q30 -34 60 70" /><line x1="0" y1="250" x2="60" y2="250"/><circle cx="30" cy="276" r="9"/></g><g transform="translate(344,104) rotate(8)"><rect x="0" y="0" width="60" height="300" rx="8"/><path d="M0 70 Q30 -34 60 70" /><line x1="0" y1="250" x2="60" y2="250"/><circle cx="30" cy="276" r="9"/></g>
</g></g>
<g stroke="#ffffff" stroke-opacity="0.04" stroke-width="1">
  <line x1="-100" y1="180" x2="1860" y2="-120"/><line x1="-100" y1="520" x2="1860" y2="220"/>
  <line x1="-100" y1="900" x2="1860" y2="600"/>
</g>
<rect width="1760" height="900" fill="url(#vig)"/>
<rect width="1760" height="900" filter="url(#g)"/>
</svg>