<svg xmlns="http://www.w3.org/2000/svg" viewBox="0 0 1760 900" preserveAspectRatio="xMidYMid slice" width="1760" height="900">
<defs>
  <linearGradient id="bg" x1="0" y1="0" x2="1" y2="1">
    <stop offset="0" stop-color="#10161c"/><stop offset="1" stop-color="#05080b"/>
  </linearGradient>
  <radialGradient id="glow" cx="0.74" cy="0.42" r="0.6">
    <stop offset="0" stop-color="#085BB0" stop-opacity="0.30"/>
    <stop offset="0.55" stop-color="#085BB0" stop-opacity="0.05"/>
    <stop offset="1" stop-color="#085BB0" stop-opacity="0"/>
  </radialGradient>
  <linearGradient id="vig" x1="0" y1="0" x2="0" y2="1">
    <stop offset="0" stop-color="#000" stop-opacity="0.35"/>
    <stop offset="0.5" stop-color="#000" stop-opacity="0"/>
    <stop offset="1" stop-color="#000" stop-opacity="0.5"/>
  </linearGradient>
  <filter id="g"><feTurbulence type="fractalNoise" baseFrequency="0.9" numOctaves="2" stitchTiles="stitch"/><feColorMatrix type="matrix" values="0 0 0 0 0  0 0 0 0 0  0 0 0 0 0  0 0 0 0.06 0"/></filter>
</defs>
<rect width="1760" height="900" fill="url(#bg)"/>
<rect width="1760" height="900" fill="url(#glow)"/>
<g opacity="0.5"><g transform="translate(1270,450)" fill="none" stroke="#085BB0" stroke-opacity="0.5" stroke-width="3">
  <circle r="300" stroke-opacity="0.10"/><circle r="220" stroke-opacity="0.16"/><circle r="140" stroke-opacity="0.22"/>
  <line x1="-360" y1="0" x2="360" y2="0" stroke-opacity="0.14"/><line x1="0" y1="-360" x2="0" y2="360" stroke-opacity="0.14"/>
  <circle r="6" fill="#085BB0" fill-opacity="0.5" stroke="none"/>
  <g stroke-opacity="0.3"><line x1="120" y1="0" x2="160" y2="0"/><line x1="-160" y1="0" x2="-120" y2="0"/><line x1="0" y1="120" x2="0" y2="160"/><line x1="0" y1="-160" x2="0" y2="-120"/></g>
</g></g>
<g stroke="#ffffff" stroke-opacity="0.04" stroke-width="1">
  <line x1="-100" y1="180" x2="1860" y2="-120"/><line x1="-100" y1="520" x2="1860" y2="220"/>
  <line x1="-100" y1="900" x2="1860" y2="600"/>
</g>
<rect width="1760" height="900" fill="url(#vig)"/>
<rect width="1760" height="900" filter="url(#g)"/>
</svg>