<svg xmlns="http://www.w3.org/2000/svg" viewBox="0 0 1760 900" preserveAspectRatio="xMidYMid slice" width="1760" height="900">
<defs>
  <linearGradient id="bg" x1="0" y1="0" x2="1" y2="1">
    <stop offset="0" stop-color="#1c1710"/><stop offset="1" stop-color="#0a0805"/>
  </linearGradient>
  <radialGradient id="glow" cx="0.74" cy="0.42" r="0.6">
    <stop offset="0" stop-color="#C8920A" stop-opacity="0.30"/>
    <stop offset="0.55" stop-color="#C8920A" stop-opacity="0.05"/>
    <stop offset="1" stop-color="#C8920A" stop-opacity="0"/>
  </radialGradient>
  <linearGradient id="vig" x1="0" y1="0" x2="0" y2="1">
    <stop offset="0" stop-color="#000" stop-opacity="0.35"/>
    <stop offset="0.5" stop-color="#000" stop-opacity="0"/>
    <stop offset="1" stop-color="#000" stop-opacity="0.5"/>
  </linearGradient>
  <filter id="g"><feTurbulence type="fractalNoise" baseFrequency="0.9" numOctaves="2" stitchTiles="stitch"/><feColorMatrix type="matrix" values="0 0 0 0 0  0 0 0 0 0  0 0 0 0 0  0 0 0 0.06 0"/></filter>
</defs>
<rect width="1760" height="900" fill="url(#bg)"/>
<rect width="1760" height="900" fill="url(#glow)"/>
<g opacity="0.5"><g transform="translate(1280,430)" fill="none" stroke="#C8920A" stroke-opacity="0.4" stroke-width="4">
  <g stroke-opacity="0.16"><circle r="260"/><circle r="180"/></g>
  <g stroke-opacity="0.22"><line x1="0" y1="0" x2="0" y2="-300" transform="rotate(0)"/><line x1="0" y1="0" x2="0" y2="-300" transform="rotate(30)"/><line x1="0" y1="0" x2="0" y2="-300" transform="rotate(60)"/><line x1="0" y1="0" x2="0" y2="-300" transform="rotate(90)"/><line x1="0" y1="0" x2="0" y2="-300" transform="rotate(120)"/><line x1="0" y1="0" x2="0" y2="-300" transform="rotate(150)"/><line x1="0" y1="0" x2="0" y2="-300" transform="rotate(180)"/><line x1="0" y1="0" x2="0" y2="-300" transform="rotate(210)"/><line x1="0" y1="0" x2="0" y2="-300" transform="rotate(240)"/><line x1="0" y1="0" x2="0" y2="-300" transform="rotate(270)"/><line x1="0" y1="0" x2="0" y2="-300" transform="rotate(300)"/><line x1="0" y1="0" x2="0" y2="-300" transform="rotate(330)"/></g>
  <polygon points="0,-150 130,-75 130,75 0,150 -130,75 -130,-75" stroke-opacity="0.3"/>
  <circle r="54" stroke-opacity="0.35"/>
</g></g>
<g stroke="#ffffff" stroke-opacity="0.04" stroke-width="1">
  <line x1="-100" y1="180" x2="1860" y2="-120"/><line x1="-100" y1="520" x2="1860" y2="220"/>
  <line x1="-100" y1="900" x2="1860" y2="600"/>
</g>
<rect width="1760" height="900" fill="url(#vig)"/>
<rect width="1760" height="900" filter="url(#g)"/>
</svg>