<svg xmlns="http://www.w3.org/2000/svg" viewBox="0 0 1000 1000" width="1000" height="1000">
<rect width="1000" height="1000" fill="#ffffff"/>
<ellipse cx="500" cy="880" rx="300" ry="34" fill="#000000" opacity="0.05"/>
<g fill="none" stroke="#cdcac4" stroke-width="9" stroke-linecap="round" stroke-linejoin="round"><g transform="translate(500,500)">
<path d="M-150 300 H150 a30 30 0 0 0 30 -30 V250 H-180 V270 a30 30 0 0 0 30 30 Z"/>
<rect x="-150" y="120" width="300" height="40" rx="8"/>
<path d="M-120 120 V-150 a40 40 0 0 1 40 -40 H40"/>
<rect x="-60" y="-30" width="120" height="150" rx="10"/>
<circle cx="0" cy="45" r="34"/>
<path d="M120 -150 a90 90 0 0 1 90 90 M210 -60 V120" />
<circle cx="210" cy="150" r="26"/>
<path d="M-120 -150 h-70 a20 20 0 0 0 -20 20 v30"/>
</g></g>
</svg>